# Exported from Wings 3D 1.5.2
mtllib tricube.mtl
o Cube1
#8 vertices, 12 faces
v -1.00000000 -1.00000000 -1.00000000
v -1.00000000 -1.00000000 1.00000000
v -1.00000000 1.00000000 -1.00000000
v -1.00000000 1.00000000 1.00000000
v 1.00000000 -1.00000000 -1.00000000
v 1.00000000 -1.00000000 1.00000000
v 1.00000000 1.00000000 -1.00000000
v 1.00000000 1.00000000 1.00000000
vt 0.0000000e+0 2.7755576e-17
vt 0.0000000e+0 0.66666667
vt 0.0000000e+0 0.66666667
vt 0.0000000e+0 1.00000000
vt 5.5511151e-17 0.33333333
vt 0.33333333 0.66666667
vt 0.33333333 0.0000000e+0
vt 0.33333333 0.66666667
vt 0.33333333 1.00000000
vt 0.33333333 0.33333333
vt 0.33333333 0.0000000e+0
vt 0.33333333 0.33333333
vt 0.33333333 0.66666667
vt 0.66666667 0.66666667
vt 0.66666667 1.00000000
vt 0.66666667 0.0000000e+0
vt 0.66666667 5.5511151e-17
vt 0.66666667 0.33333333
vt 0.66666667 0.33333333
vt 1.00000000 2.7755576e-17
vt 1.00000000 0.33333333
vn -0.57735027 -0.57735027 -0.57735027
vn -0.57735027 -0.57735027 0.57735027
vn -0.57735027 0.57735027 -0.57735027
vn -0.57735027 0.57735027 0.57735027
vn 0.57735027 -0.57735027 -0.57735027
vn 0.57735027 -0.57735027 0.57735027
vn 0.57735027 0.57735027 -0.57735027
vn 0.57735027 0.57735027 0.57735027
g Cube1_Cube1_auv
usemtl Cube1_auv
s 1
f 1/15/1 5/9/5 2/14/2
f 2/17/2 3/12/3 1/11/1
f 2/14/2 5/9/5 6/13/6
f 2/1/2 8/10/8 4/5/4
f 3/21/3 5/16/5 1/20/1
f 3/2/3 8/10/8 7/6/7
f 4/19/4 3/12/3 2/17/2
f 4/5/4 8/10/8 3/2/3
f 5/8/5 8/4/8 6/3/6
f 6/7/6 8/10/8 2/1/2
f 7/18/7 5/16/5 3/21/3
f 7/9/7 8/4/8 5/8/5
